PathFileType	4	(X/Y/Z)	C:\Users\dbl\Desktop\20210112\20210112\bx_n_5_501.trc
DataRate	CameraRate	NumFrames	NumMarkers	Units	OrigDataRate	OrigDataStartFrame	OrigNumFrames
50.00	50.00	       8	43	mm	50.00	130	       517
Frame#	Time	Top.Head			R.Acromium			L.Acromium			Sternum			R.ASIS			L.ASIS			V.Sacral			R.Thigh.Upper			R.Thigh.Front			R.Thigh.Rear			R.Knee.Lat			R.Knee.Med			R.Shank.Upper			R.Shank.Front			R.Shank.Rear			R.Ankle.Lat			R.Midfoot.Lat			R.Toe.Lat			R.Toe.Tip			R.Toe.Med			R.Ankle.Med			R.Midfoot.Sup			R.Heel			L.Thigh.Upper			L.Thigh.Front			L.Thigh.Rear			L.Knee.Lat			L.Knee.Med			L.Shank.Upper			L.Shank.Front			L.Shank.Rear			L.Ankle.Lat			L.Midfoot.Lat			L.Toe.Lat			L.Toe.Tip			L.Toe.Med			L.Ankle.Med			L.Midfoot.Sup			L.Heel			origin1 front left			origin2 front right			origin 3 back right			origin 4 back leftt			
		X1	Y1	Z1	X2	Y2	Z2	X3	Y3	Z3	X4	Y4	Z4	X5	Y5	Z5	X6	Y6	Z6	X7	Y7	Z7	X8	Y8	Z8	X9	Y9	Z9	X10	Y10	Z10	X11	Y11	Z11	X12	Y12	Z12	X13	Y13	Z13	X14	Y14	Z14	X15	Y15	Z15	X16	Y16	Z16	X17	Y17	Z17	X18	Y18	Z18	X19	Y19	Z19	X20	Y20	Z20	X21	Y21	Z21	X22	Y22	Z22	X23	Y23	Z23	X24	Y24	Z24	X25	Y25	Z25	X26	Y26	Z26	X27	Y27	Z27	X28	Y28	Z28	X29	Y29	Z29	X30	Y30	Z30	X31	Y31	Z31	X32	Y32	Z32	X33	Y33	Z33	X34	Y34	Z34	X35	Y35	Z35	X36	Y36	Z36	X37	Y37	Z37	X38	Y38	Z38	X39	Y39	Z39	X40	Y40	Z40	X41	Y41	Z41	X42	Y42	Z42	X43	Y43	Z43	

130	2.580	-179.20758	131.37479	1491.94568	-374.13062	-52.73723	1285.00488	-405.03381	285.03317	1282.73096	-499.36328	101.34171	1117.28503	-729.49329	-6.97965	1013.68689	-730.36584	238.59705	1033.51123	-912.99463	92.26778	1094.51599	-804.29828	-74.90752	867.87085	-717.55151	-7.64123	807.84235	-803.12103	-65.86199	751.43579	-794.17566	-37.59012	611.80005	-775.06702	71.85780	569.48584	-793.04718	-35.52061	565.00946	-735.55750	14.64508	526.34717	-818.98590	-50.33385	478.93976	-762.90015	-24.62996	205.03641	-648.62048	-68.61443	160.64290	-605.27539	-73.82404	156.32265	-548.72583	-21.18103	161.93750	-600.75885	27.86334	167.83734	-726.51123	64.69334	219.85446	-675.81372	51.01973	162.66037	-794.96924	34.21694	174.70976	-824.91882	287.74091	869.35938	-718.47534	221.44133	796.57123	-807.67926	279.27185	735.72418	-818.03699	254.30496	632.33112	-769.92328	145.13937	573.66302	-806.41907	248.73050	568.58008	-745.50714	207.39380	538.35406	-831.50677	261.48663	489.83878	-772.04272	230.17726	202.96957	-660.21893	298.51971	156.32315	-623.46820	306.57053	158.77663	-556.86371	253.37758	163.17648	-593.38092	217.58463	173.26837	-719.27380	156.77144	220.89754	-676.52136	174.42580	161.60567	-797.95172	181.06961	182.98857	-527.89508	304.34302	146.64101	-517.71320	-72.97472	143.30121	-875.86627	-78.58656	141.24562	-882.55212	296.12515	144.75241	
131	2.600	-174.49094	131.48427	1480.29468	-370.16656	-52.11497	1276.22607	-400.40616	284.46835	1273.28296	-497.93790	101.41123	1110.69385	-732.01074	-7.13001	1011.85474	-732.46680	238.45047	1031.90283	-914.30219	92.31460	1095.26367	-807.28558	-75.16637	867.42676	-720.28912	-7.77576	807.75421	-805.57532	-66.37917	751.12781	-795.95367	-37.81149	611.61816	-776.82739	71.57053	569.29388	-794.59442	-35.81549	564.92297	-737.03497	14.46673	526.45453	-820.13538	-50.74235	478.69214	-762.88434	-24.93482	204.92535	-648.54132	-68.70919	160.58366	-605.26123	-73.89114	156.28085	-548.82245	-21.17016	161.92146	-600.68079	27.73657	167.95265	-726.84576	64.52222	220.26257	-675.80927	50.92353	162.77170	-795.05859	33.91830	174.70990	-827.57367	287.75055	869.15649	-720.90918	221.15224	796.22198	-809.91321	279.32397	735.36255	-819.87964	254.46776	632.01422	-771.78540	145.18289	573.44519	-808.17133	248.77182	568.33380	-747.08118	207.33798	538.28381	-832.92432	261.57040	489.59201	-772.13959	230.19405	202.88177	-660.22656	298.52078	156.29147	-623.47766	306.52048	158.79684	-556.81915	253.33769	163.19807	-593.50195	217.60072	173.23270	-719.41681	156.83095	221.02437	-676.56915	174.53479	161.67998	-798.05493	181.32008	182.77545	-527.88153	304.34167	146.64078	-517.71735	-72.93206	143.32545	-875.87616	-78.62218	141.26355	-882.53687	296.10837	144.74260	
132	2.620	-170.11911	131.60364	1469.03772	-366.55331	-51.49236	1267.85522	-396.39383	283.95786	1264.23218	-496.60837	101.47386	1104.33801	-734.31641	-7.20530	1010.07336	-734.43347	238.31340	1030.41272	-915.31049	92.27317	1095.87439	-810.03101	-75.38300	866.97931	-722.76074	-7.87901	807.67737	-807.79388	-66.74937	750.75513	-797.53821	-37.90138	611.40454	-778.29974	71.32745	569.03375	-795.92700	-35.96400	564.74725	-738.33044	14.35682	526.50555	-821.14581	-51.02752	478.48291	-762.84674	-25.13032	204.83058	-648.45154	-68.71111	160.56775	-605.26984	-73.91597	156.25844	-548.88025	-21.17856	161.86678	-600.62225	27.72483	167.97401	-727.04425	64.37842	220.57997	-675.76971	50.88494	162.75375	-795.12030	33.78047	174.69328	-830.09009	287.82037	868.98853	-723.22357	221.02252	795.96033	-812.02368	279.42972	735.09283	-821.57153	254.64842	631.70526	-773.49512	145.23767	573.22498	-809.76154	248.85046	568.09210	-748.49658	207.29745	538.27502	-834.20807	261.68646	489.40271	-772.26898	230.21677	202.84779	-660.20349	298.53058	156.33699	-623.47125	306.47781	158.83347	-556.77563	253.31143	163.24034	-593.59210	217.62766	173.15065	-719.55707	156.91577	221.21100	-676.66412	174.67697	161.75397	-798.21252	181.53917	182.60907	-527.89832	304.30991	146.59196	-517.78137	-72.90923	143.32022	-875.88184	-78.63927	141.27963	-882.52722	296.10867	144.74379	
133	2.640	-166.04932	131.76520	1458.20850	-363.24109	-50.80702	1259.87744	-392.96307	283.44336	1255.56396	-495.36191	101.53586	1098.22705	-736.44464	-7.27676	1008.35657	-736.26538	238.13806	1029.04272	-916.13098	92.16062	1096.31433	-812.36475	-75.56954	866.63226	-724.88275	-7.91937	807.60522	-809.70752	-66.91636	750.34454	-798.91809	-37.89925	611.16333	-779.54480	71.16300	568.76239	-797.05457	-35.97147	564.47607	-739.43066	14.33612	526.51300	-822.01202	-51.12949	478.22726	-762.81567	-25.19448	204.75485	-648.37427	-68.63005	160.59486	-605.26874	-73.90448	156.26834	-548.89038	-21.19206	161.81874	-600.58716	27.80861	167.90900	-727.10339	64.27965	220.70856	-675.71222	50.90797	162.64438	-795.15778	33.80173	174.63393	-832.42493	287.91232	868.79926	-725.46411	220.98795	795.75739	-813.98474	279.61890	734.87909	-823.10071	254.82532	631.40637	-775.03589	145.25572	573.01709	-811.13739	248.94640	567.82373	-749.74835	207.32259	538.33295	-835.30988	261.84210	489.21179	-772.38519	230.25688	202.86292	-660.13983	298.54861	156.47630	-623.44232	306.43839	158.87358	-556.77802	253.30267	163.28011	-593.66583	217.65294	173.07198	-719.66766	157.01422	221.43034	-676.78070	174.81908	161.82121	-798.38000	181.69348	182.49617	-527.92340	304.26761	146.54295	-517.85449	-72.90816	143.29321	-875.88672	-78.63013	141.29553	-882.51471	296.11472	144.74144	
134	2.660	-162.25409	132.00449	1447.89136	-360.21896	-50.05044	1252.33118	-390.10324	282.89124	1247.26392	-494.19080	101.60165	1092.36743	-738.39001	-7.37615	1006.70526	-737.95233	237.95514	1027.73535	-916.85706	92.03510	1096.60547	-814.26282	-75.72070	866.39911	-726.68054	-7.86409	807.50378	-811.32831	-66.95100	749.96588	-800.08020	-37.86555	610.92792	-780.65997	71.11538	568.55756	-797.99982	-35.90621	564.14545	-740.37360	14.38614	526.49066	-822.72821	-51.10434	477.90961	-762.81818	-25.19483	204.70317	-648.32166	-68.52160	160.64536	-605.25128	-73.87699	156.30760	-548.86292	-21.20685	161.79672	-600.57056	27.94542	167.80640	-727.09332	64.26627	220.69736	-675.66394	50.95542	162.53787	-795.17780	33.87563	174.53540	-834.53528	288.00827	868.58142	-727.57599	220.97577	795.55176	-815.77301	279.84091	734.67676	-824.49719	254.97685	631.13989	-776.41089	145.19467	572.85828	-812.30304	249.01941	567.53046	-750.86304	207.42557	538.42590	-836.23956	261.99756	488.96475	-772.46704	230.30608	202.90231	-660.06116	298.57245	156.64301	-623.40015	306.39664	158.89494	-556.82166	253.30609	163.30086	-593.73297	217.66055	173.02591	-719.74890	157.09700	221.62709	-676.88367	174.91299	161.89120	-798.53259	181.78117	182.43707	-527.94263	304.24277	146.52707	-517.90228	-72.90570	143.26068	-875.90039	-78.61278	141.32504	-882.50238	296.11374	144.73033	
135	2.680	-158.73993	132.34299	1438.16382	-357.52045	-49.29454	1245.28418	-387.75998	282.36911	1239.41846	-493.09213	101.67284	1086.76025	-740.15564	-7.47272	1005.15015	-739.47656	237.79839	1026.43884	-917.53491	91.94765	1096.83789	-815.83807	-75.82224	866.22180	-728.25574	-7.70158	807.33740	-812.70581	-66.96281	749.66791	-801.00525	-37.82576	610.72705	-781.69830	71.19153	568.45142	-798.77899	-35.86268	563.83130	-741.20294	14.45387	526.46490	-823.28192	-51.05538	477.57614	-762.84363	-25.20531	204.67638	-648.28741	-68.43683	160.69545	-605.22754	-73.84545	156.35588	-548.82349	-21.21993	161.78719	-600.56885	28.09736	167.69243	-727.07904	64.33631	220.64658	-675.64819	50.99076	162.49092	-795.18018	33.89936	174.43222	-836.42450	288.10010	868.36536	-729.46594	220.93855	795.31250	-817.38416	280.03595	734.46283	-825.78888	255.06297	630.88910	-777.65784	145.08574	572.76587	-813.33142	249.05238	567.25000	-751.89404	207.55553	538.47723	-837.04883	262.10547	488.66074	-772.52887	230.33716	202.93370	-659.99939	298.59042	156.75388	-623.36835	306.35675	158.88234	-556.87085	253.31535	163.30107	-593.79919	217.63475	173.00555	-719.81622	157.14587	221.75189	-676.96271	174.93974	161.96753	-798.66339	181.80186	182.44029	-527.96063	304.24323	146.53233	-517.92267	-72.89051	143.23686	-875.91656	-78.60606	141.34998	-882.50885	296.10760	144.72458	
136	2.700	-155.52344	132.76289	1429.03979	-355.18246	-48.61999	1238.75391	-385.80908	282.01111	1232.15271	-492.06528	101.74942	1081.40308	-741.77368	-7.53475	1003.73914	-740.83228	237.65149	1025.16431	-918.18713	91.87954	1097.09009	-817.24194	-75.88737	866.05090	-729.69727	-7.48079	807.10303	-813.89392	-66.98826	749.42859	-801.71857	-37.79260	610.57672	-782.65442	71.32538	568.40002	-799.45398	-35.89009	563.61145	-741.92395	14.51188	526.45746	-823.70715	-51.05508	477.29321	-762.86475	-25.24216	204.66380	-648.25751	-68.39742	160.74017	-605.20587	-73.81274	156.39386	-548.79956	-21.22511	161.77385	-600.57141	28.22059	167.56900	-727.09955	64.42952	220.59286	-675.68115	51.01351	162.50891	-795.17981	33.86348	174.35757	-838.16357	288.14813	868.17261	-731.09937	220.87860	795.06506	-818.83862	280.19907	734.24542	-826.98755	255.08463	630.62701	-778.81281	144.99962	572.72241	-814.31573	249.06767	567.02057	-752.88171	207.62691	538.42371	-837.81073	262.16925	488.37030	-772.58124	230.33958	202.93716	-659.97003	298.58511	156.77986	-623.36133	306.32867	158.85095	-556.90533	253.32863	163.29192	-593.87244	217.57513	173.00108	-719.86572	157.16617	221.80266	-677.02161	174.92488	162.03354	-798.75946	181.77922	182.47577	-527.97864	304.24466	146.53638	-517.93146	-72.87763	143.22559	-875.92206	-78.61425	141.34581	-882.53583	296.10486	144.73749	
137	2.720	-152.60016	133.21480	1420.50562	-353.22598	-48.02472	1232.67114	-384.15762	281.88397	1225.48779	-491.10999	101.83093	1076.29321	-743.26843	-7.58980	1002.48718	-742.04578	237.50035	1023.96851	-918.82928	91.79018	1097.37012	-818.59583	-75.93801	865.84772	-731.04565	-7.28767	806.84149	-814.96631	-67.01581	749.18854	-802.33392	-37.79733	610.46100	-783.51831	71.43002	568.31915	-800.12207	-35.95596	563.47833	-742.54926	14.56746	526.44318	-824.11285	-51.13421	477.10394	-762.88519	-25.27550	204.64342	-648.23175	-68.39180	160.78491	-605.19269	-73.78563	156.41113	-548.79865	-21.21895	161.75832	-600.57397	28.29841	167.44373	-727.17816	64.48637	220.52052	-675.76306	51.05158	162.57263	-795.20276	33.83044	174.31805	-839.82782	288.12476	868.01190	-732.53381	220.83987	794.84814	-820.17859	280.34335	734.04541	-828.11731	255.10817	630.36774	-779.86566	144.95853	572.69873	-815.28821	249.08833	566.84375	-753.81738	207.60692	538.29541	-838.57898	262.21448	488.15286	-772.60992	230.32704	202.89516	-659.97296	298.54599	156.75996	-623.36499	306.31757	158.83328	-556.92920	253.33623	163.28543	-593.94861	217.50352	173.00655	-719.89648	157.16963	221.80711	-677.05798	174.90388	162.07240	-798.81372	181.75586	182.49139	-527.99042	304.22635	146.54092	-517.95221	-72.89185	143.22008	-875.91669	-78.63175	141.32597	-882.56750	296.10681	144.76042	
